{
    "asset" : {
        "generator" : "Khronos glTF Blender I/O v1.7.33",
        "version" : "2.0"
    },
    "scene" : 0,
    "scenes" : [
        {
            "name" : "Scene",
            "nodes" : [
                0,
                1,
                2
            ]
        }
    ],
    "nodes" : [
        {
            "mesh" : 0,
            "name" : "holder"
        },
        {
            "mesh" : 1,
            "name" : "lampoff"
        },
        {
            "mesh" : 2,
            "name" : "lampon"
        }
    ],
    "materials" : [
        {
            "doubleSided" : true,
            "name" : "off",
            "pbrMetallicRoughness" : {
                "baseColorTexture" : {
                    "index" : 0
                },
                "metallicFactor" : 0,
                "roughnessFactor" : 0.1
            }
        },
        {
            "doubleSided" : true,
            "emissiveFactor" : [
                10,
                1,
                1
            ],
            "emissiveTexture" : {
                "index" : 1
            },
            "name" : "on",
            "pbrMetallicRoughness" : {
                "baseColorTexture" : {
                    "index" : 2
                },
                "metallicFactor" : 0,
                "roughnessFactor" : 0.1
            }
        }
    ],
    "meshes" : [
        {
            "name" : "holder.mesh",
            "primitives" : [
                {
                    "attributes" : {
                        "POSITION" : 0,
                        "NORMAL" : 1,
                        "TEXCOORD_0" : 2
                    },
                    "indices" : 3,
                    "material" : 0
                }
            ]
        },
        {
            "name" : "Cylinder",
            "primitives" : [
                {
                    "attributes" : {
                        "POSITION" : 4,
                        "NORMAL" : 5,
                        "TEXCOORD_0" : 6
                    },
                    "indices" : 7,
                    "material" : 0
                }
            ]
        },
        {
            "name" : "Cylinder.001",
            "primitives" : [
                {
                    "attributes" : {
                        "POSITION" : 8,
                        "NORMAL" : 9,
                        "TEXCOORD_0" : 10
                    },
                    "indices" : 7,
                    "material" : 1
                }
            ]
        }
    ],
    "textures" : [
        {
            "sampler" : 0,
            "source" : 0
        },
        {
            "sampler" : 0,
            "source" : 0
        },
        {
            "sampler" : 0,
            "source" : 0
        }
    ],
    "images" : [
        {
            "mimeType" : "image/png",
            "name" : "masterwarning",
            "uri" : "masterwarning.png"
        }
    ],
    "accessors" : [
        {
            "bufferView" : 0,
            "componentType" : 5126,
            "count" : 96,
            "max" : [
                0.00610999995842576,
                0.006659999955445528,
                0.006659999955445528
            ],
            "min" : [
                -4.999999873689376e-05,
                -0.006659999955445528,
                -0.006659999955445528
            ],
            "type" : "VEC3"
        },
        {
            "bufferView" : 1,
            "componentType" : 5126,
            "count" : 96,
            "type" : "VEC3"
        },
        {
            "bufferView" : 2,
            "componentType" : 5126,
            "count" : 96,
            "type" : "VEC2"
        },
        {
            "bufferView" : 3,
            "componentType" : 5123,
            "count" : 288,
            "type" : "SCALAR"
        },
        {
            "bufferView" : 4,
            "componentType" : 5126,
            "count" : 97,
            "max" : [
                0.015449999831616879,
                0.007860000245273113,
                0.007860000245273113
            ],
            "min" : [
                0.005499999970197678,
                -0.007860000245273113,
                -0.007860000245273113
            ],
            "type" : "VEC3"
        },
        {
            "bufferView" : 5,
            "componentType" : 5126,
            "count" : 97,
            "type" : "VEC3"
        },
        {
            "bufferView" : 6,
            "componentType" : 5126,
            "count" : 97,
            "type" : "VEC2"
        },
        {
            "bufferView" : 7,
            "componentType" : 5123,
            "count" : 504,
            "type" : "SCALAR"
        },
        {
            "bufferView" : 8,
            "componentType" : 5126,
            "count" : 97,
            "max" : [
                0.015469999983906746,
                0.00786999985575676,
                0.00786999985575676
            ],
            "min" : [
                0.005510000046342611,
                -0.00786999985575676,
                -0.00786999985575676
            ],
            "type" : "VEC3"
        },
        {
            "bufferView" : 9,
            "componentType" : 5126,
            "count" : 97,
            "type" : "VEC3"
        },
        {
            "bufferView" : 10,
            "componentType" : 5126,
            "count" : 97,
            "type" : "VEC2"
        }
    ],
    "bufferViews" : [
        {
            "buffer" : 0,
            "byteLength" : 1152,
            "byteOffset" : 0
        },
        {
            "buffer" : 0,
            "byteLength" : 1152,
            "byteOffset" : 1152
        },
        {
            "buffer" : 0,
            "byteLength" : 768,
            "byteOffset" : 2304
        },
        {
            "buffer" : 0,
            "byteLength" : 576,
            "byteOffset" : 3072
        },
        {
            "buffer" : 0,
            "byteLength" : 1164,
            "byteOffset" : 3648
        },
        {
            "buffer" : 0,
            "byteLength" : 1164,
            "byteOffset" : 4812
        },
        {
            "buffer" : 0,
            "byteLength" : 776,
            "byteOffset" : 5976
        },
        {
            "buffer" : 0,
            "byteLength" : 1008,
            "byteOffset" : 6752
        },
        {
            "buffer" : 0,
            "byteLength" : 1164,
            "byteOffset" : 7760
        },
        {
            "buffer" : 0,
            "byteLength" : 1164,
            "byteOffset" : 8924
        },
        {
            "buffer" : 0,
            "byteLength" : 776,
            "byteOffset" : 10088
        }
    ],
    "samplers" : [
        {
            "magFilter" : 9729,
            "minFilter" : 9987
        }
    ],
    "buffers" : [
        {
            "byteLength" : 10864,
            "uri" : "masterwarning.bin"
        }
    ]
}
