<?xml version="1.0" encoding="UTF-8" standalone="no"?>
<!-- Created with Inkscape (http://www.inkscape.org/) -->

<svg
   width="256"
   height="256"
   viewBox="0 0 256 256"
   version="1.1"
   id="svg8"
   inkscape:version="1.1.2 (76b9e6a115, 2022-02-25)"
   sodipodi:docname="hud_crosshairs.svg"
   xmlns:inkscape="http://www.inkscape.org/namespaces/inkscape"
   xmlns:sodipodi="http://sodipodi.sourceforge.net/DTD/sodipodi-0.dtd"
   xmlns="http://www.w3.org/2000/svg"
   xmlns:svg="http://www.w3.org/2000/svg"
   xmlns:rdf="http://www.w3.org/1999/02/22-rdf-syntax-ns#"
   xmlns:cc="http://creativecommons.org/ns#"
   xmlns:dc="http://purl.org/dc/elements/1.1/">
  <defs
     id="defs2" />
  <sodipodi:namedview
     id="base"
     pagecolor="#000000"
     bordercolor="#666666"
     borderopacity="1.0"
     inkscape:pageopacity="0"
     inkscape:pageshadow="2"
     inkscape:zoom="3.8064024"
     inkscape:cx="151.45535"
     inkscape:cy="130.56948"
     inkscape:document-units="px"
     inkscape:current-layer="svg8"
     showgrid="false"
     inkscape:window-width="1920"
     inkscape:window-height="1015"
     inkscape:window-x="0"
     inkscape:window-y="0"
     inkscape:window-maximized="1"
     units="px"
     showguides="true"
     inkscape:guide-bbox="true"
     inkscape:pagecheckerboard="0">
    <sodipodi:guide
       position="128.01563,219.5"
       orientation="1,0"
       id="guide19"
       inkscape:locked="false" />
    <sodipodi:guide
       position="-25.98065,128.0029"
       orientation="0,1"
       id="guide21"
       inkscape:locked="false" />
  </sodipodi:namedview>
  <metadata
     id="metadata5">
    <rdf:RDF>
      <cc:Work
         rdf:about="">
        <dc:format>image/svg+xml</dc:format>
        <dc:type
           rdf:resource="http://purl.org/dc/dcmitype/StillImage" />
        <dc:title />
      </cc:Work>
    </rdf:RDF>
  </metadata>
  <g
     id="g42">
    <path
       style="fill:none;stroke:#ffcc00;stroke-width:2;stroke-linecap:butt;stroke-linejoin:miter;stroke-miterlimit:4;stroke-dasharray:none;stroke-opacity:1"
       d="m 128.23835,80.15037 v 158.2418"
       id="path826"
       inkscape:connector-curvature="0"
       sodipodi:nodetypes="cc" />
    <path
       inkscape:connector-curvature="0"
       style="fill:none;stroke:#ffcc00;stroke-width:2;stroke-linecap:butt;stroke-linejoin:miter;stroke-miterlimit:4;stroke-dasharray:none;stroke-opacity:1"
       d="m 125.67257,83.61207 h 5.09308 z m 0,20.49158 h 5.37161 z m 5.45081,35.98931 h 4.83458 z m -10.5439,0.0395 h 4.7149 z m 10.56392,12.3147 h 4.77496 z m -10.60395,0.0203 h 4.81456 z m -0.01,12.9714 h 4.85416 z m 10.57393,0 h 4.89376 z m -10.56436,12.63283 h 15.45812 z m 5.08787,12.30427 h 5.28936 z m 0.0566,23.9714 h 5.20494 z m -5.12094,11.9574 h 15.41808 z"
       id="path834" />
    <path
       inkscape:connector-curvature="0"
       style="fill:none;stroke:#ffcc00;stroke-width:2;stroke-linecap:butt;stroke-linejoin:miter;stroke-miterlimit:4;stroke-dasharray:none;stroke-opacity:1"
       d="m 82.678805,125.31287 v 5.41599 z m 21.885515,0.0577 v 5.25237 z m 47.32917,0 v 5.31199 z m 23.59495,0.0995 v 5.41123 z"
       id="path838" />
    <path
       inkscape:connector-curvature="0"
       style="fill:#ffff00;stroke:#ffcc00;stroke-width:2;stroke-linecap:butt;stroke-linejoin:miter;stroke-miterlimit:4;stroke-dasharray:none;stroke-opacity:1"
       d="m 133.88904,127.9571 h 7.14199 z m -18.46226,0.04 h 7.14198 z m 30.04062,0 h 6.48571 z m -40.90308,0.0397 h 6.3064 z"
       id="path840" />
    <path
       inkscape:connector-curvature="0"
       style="fill:none;stroke:#ffcc00;stroke-width:2;stroke-linecap:butt;stroke-linejoin:miter;stroke-miterlimit:4;stroke-dasharray:none;stroke-opacity:1"
       d="m 105.21168,150.89082 -51.426232,55.26401 z m 46.05334,0 51.42622,55.26401 z m -48.28656,39.45668 -7.484039,18.90705 z m 50.64362,0.11285 7.54018,18.28774 z"
       id="path845"
       sodipodi:nodetypes="cccccccccccc" />
    <path
       style="fill:none;stroke:#ffcc00;stroke-width:2;stroke-miterlimit:4;stroke-dasharray:none;stroke-opacity:1"
       d="m 60.323287,147.43382 c 1.192032,4.6094 2.810446,9.08685 4.832401,13.36919 m 5.899936,10.22619 c 1.994749,2.96604 4.196435,5.77429 6.58711,8.40187 m 7.256434,6.75248 c 2.274924,1.86221 4.657322,3.57664 7.133715,5.13358 m 9.206547,4.95728 c 3.51897,1.51008 7.14916,2.72038 10.85506,3.61908 m 7.68075,1.46355 c 2.86581,0.39155 5.75195,0.59883 8.6421,0.62061 2.78487,-0.0308 5.56556,-0.23353 8.32745,-0.60752 m 7.66117,-1.40176 c 3.6956,-0.88861 7.31655,-2.08695 10.82765,-3.5834 m 9.18304,-4.81891 c 2.79343,-1.70587 5.47112,-3.61044 8.01411,-5.7002 m 6.89653,-6.6859 c 2.3975,-2.60005 4.60874,-5.3806 6.61583,-8.31916 m 5.71803,-10.1257 c 1.99543,-4.2423 3.59518,-8.67532 4.77713,-13.23775 m 1.98144,-10.5587 c 0.33965,-2.85888 0.51839,-5.73611 0.53529,-8.61683 -0.006,-1.8576 -0.0781,-3.71433 -0.21804,-5.56615 M 58.161229,122.44625 c -0.168751,1.95382 -0.262686,3.91391 -0.281571,5.87557 0.02907,2.82487 0.213745,5.64569 0.553133,8.44843"
       id="path855"
       inkscape:connector-curvature="0"
       sodipodi:nodetypes="ccccccccccccccccccccccccc" />
    <path
       style="fill:none;stroke:#ffcc00;stroke-width:2;stroke-miterlimit:4;stroke-dasharray:none;stroke-dashoffset:0;stroke-opacity:1"
       d="m 56.780366,193.1049 c 2.922656,3.55041 6.106249,6.87774 9.524236,9.95422 m 124.321658,-0.27937 c 3.32947,-3.03235 6.43285,-6.30401 9.28531,-9.78883"
       id="path897"
       inkscape:connector-curvature="0"
       sodipodi:nodetypes="cccc" />
    <path
       inkscape:connector-curvature="0"
       style="fill:none;stroke:#ffcc00;stroke-width:2;stroke-linecap:butt;stroke-linejoin:miter;stroke-miterlimit:4;stroke-dasharray:none;stroke-opacity:1"
       d="m 95.422635,159.88548 1.571488,1.52187 z m -9.40804,10.3241 1.948369,0.2112 z"
       id="path820" />
    <path
       id="path839"
       d="m 161.05844,160.09795 -1.57149,1.52187 z m 9.40804,10.3241 -1.94837,0.21119 z"
       style="fill:none;stroke:#ffcc00;stroke-width:2;stroke-linecap:butt;stroke-linejoin:miter;stroke-miterlimit:4;stroke-dasharray:none;stroke-opacity:1"
       inkscape:connector-curvature="0" />
    <path
       style="fill:none;stroke:#ffcc00;stroke-width:2;stroke-linecap:butt;stroke-linejoin:miter;stroke-miterlimit:4;stroke-dasharray:none;stroke-opacity:1"
       d="m 86.85871,169.39362 0.196949,1.94135"
       id="path822"
       inkscape:connector-curvature="0" />
    <path
       inkscape:connector-curvature="0"
       id="path841"
       d="m 169.62387,169.54198 -0.19695,1.94132"
       style="fill:none;stroke:#ffcc00;stroke-width:2;stroke-linecap:butt;stroke-linejoin:miter;stroke-miterlimit:4;stroke-dasharray:none;stroke-opacity:1" />
  </g>
</svg>
